<svg xmlns="http://www.w3.org/2000/svg" viewBox="0 0 152.24 149.6">

  <path d="M140.47,36.72c-6.67-11.53-14.37-21.9-25.9-28.57C103.39,1.68,90.72.29,76.88.29s-28.47-2-39.65,4.47c-11.53,6.67-19.52,19.12-26.19,30.66C4.57,46.6,0,59.58,0,73.43s3.28,27.58,9.75,38.76c6.67,11.53,16.46,22.36,27.99,29.03,11.18,6.47,25.3,8.38,39.14,8.38s25.42-6.3,36.6-12.76c11.53-6.67,20.92-14.81,27.6-26.34,6.47-11.18,11.16-23.22,11.16-37.06s-5.3-25.53-11.77-36.71ZM88.8,63.25c.2-1.27.1-2.64.25-3.97.25-2.7.3-5.44.41-8.19.15-2.75.2-5.44.15-8.19-.05-2.59-.15-5.24.25-7.78,2.69-.25,5.8-.61,8.49-.46.15,2.9-.66,6.51.2,9.2.2-.41.46-.76.71-1.17.61-1.02,1.32-2.03,1.98-3.1.86-1.47,1.63-3.15,2.69-4.42.51-.61.61-.41,1.42-.36,1.52.2,3.1.15,4.58.36.15.86-.81,1.98-1.32,2.64-.92,1.32-1.73,2.85-2.59,4.27-.97,1.58-2.24,3.1-2.85,4.83-.05.1,1.93,2.64,2.03,2.85.81,1.22,1.58,2.44,2.24,3.76.61,1.12,1.37,2.19,1.93,3.31.56,1.17.86,2.44,1.37,3.61l.41,1.06c.61,1.37.56,2.08,1.32,3.41-.61.46-2.03.46-2.8.41-1.47-.05-2.95-.1-4.37-.2-.97-1.88-1.58-4.22-2.95-5.9-1.27-1.47-1.93-3.36-2.64-5.19-.36-.92-.61-1.78-1.02-2.64-.25,2.8-.41,5.54-.71,8.34-.15,1.68.51,3.36.05,5.03-.05.05-.15.1-.2.1-1.78.1-3.56.1-5.29.2-.66.05-1.32.2-1.98.15-.66-.05-1.37-.41-2.03-.36,0-.56.15-1.07.25-1.63ZM64.31,51.51c.51-4.93-.1-9.81.15-14.8,0-.2-.05-.46-.05-.66.1-.81.66-1.37,1.52-1.37,2.08,0,4.17-.2,6.2.1,2.44.36,4.88.2,7.37.25.76,0,1.42.2,2.08.61,1.68,1.12,2.85,2.49,3.56,4.47.97,2.64,1.73,5.64.71,8.39-.76,2.03-3,4.32-5.24,4.78.76,1.22,1.02,2.75,1.63,3.97l.25.51c.51,1.07.92,1.58,1.42,2.64.61,1.58,1.47,3.41,2.34,4.83-.92-.05-1.78.2-2.75.1-1.02-.2-1.68,0-2.64.15-1.07.15-1.93-.1-3-.1-.2-.86-.51-1.68-.91-2.44-.25-.56-.56-1.12-.81-1.68-.56-1.53-1.22-3.26-1.73-4.93l-.46-1.63c-.86,0-1.68.05-2.54.1,0,2.59.25,5.24.15,7.78-.05.97-.15,1.93,0,2.85-.56,0-1.07.3-1.63.3-.46,0-1.02-.15-1.47-.2-1.32-.1-2.59-.31-3.86-.31-.15,0-.25-.1-.25-.2.66-4.37-.56-9.1-.05-13.53ZM41.42,52.68c-.61-5.19-.1-10.32-.31-15.51-.05-1.63.05-1.58,1.73-1.98,1.27-.31,2.54-.31,4.02-.2,1.78-.15,3.61-.36,5.44-.41,2.08-.05,3.97.86,5.7,2.03,1.88,1.27,2.75,2.95,3.25,5.09.3,1.47.56,2.9.61,4.42v1.02c.1,1.98-.76,2.54-1.73,4.22-1.17,1.93-2.95,3.1-5.09,3.76-1.88.51-4.78,1.42-6.66.76-.25,1.78-.31,3.61-.2,5.39.05,1.27.2,2.59.05,3.81-1.98.36-4.32,0-6.31-.05-.1,0-.2-.1-.2-.2-.15-2.64-.97-5.24-.56-7.93.2-1.42.46-2.85.25-4.22ZM57.2,85.59c-.3,7.94-.71,15.95-.18,23.89l-.12-.14c.12,1.71.35,3.35.3,5.2,0,.96-8.28.68-9.99.62-.18,0-.3-.21-.3-.34-.12-4.79.3-9.58-.24-14.44-.24-2.6-.18-5.2-.24-7.8-.06-2.05.18-4.31-.18-6.37,0-.14-.12-.27-.3-.27-1.06-.07-2.19,0-3.31-.07-.12,0-.3-.14-.3-.34.18-2.94-.18-6.03.06-9.04,0-.13.18-.27.3-.27,1.3.07,2.96.14,4.02-.41.47-.21.83,0,1.24,0,1.54-.07,3.13.21,4.67.14,1.6-.14,2.78-.34,4.37.21,1.01.28.24,8.56.18,9.45ZM85.85,99.21c-.21,2.26-.58,4.45-.95,6.64-.32,1.78-.58,3.7-1.74,4.93-.53.55-1.26.89-1.84,1.3-.53.48-1.05.89-1.68,1.1-1.37.48-2.69,1.09-4.05,1.23-1.32.21-2.69.14-3.95-.27-1.32-.48-2.37-.82-3.47-2.05-1.84-2.12-2.74-5.27-3.53-8.35-.26-1.03-.32-2.05-.47-3.08-.63-4.86-.16-9.31.74-13.9.11-.82.21-1.71.47-2.46,1.16-3.29,3.47-5.96,6.05-7.26l.1.14c1.11-.55,2.42-.89,3.69-.68.16,0,.26,0,.42.06,1.58.34,3.26.55,4.84,1.16,1,.41,2.16,1.1,2.84,2.53.47,1.1,1.16,1.99,1.53,3.15.42,1.3.69,2.6.69,4.04.05,1.92.32,3.76.32,5.68.05,1.99.11,4.04,0,6.09ZM108.35,85.59c-.36,7.94-.87,15.95-.22,23.89l-.15-.14c.15,1.71.44,3.35.36,5.2,0,.96-10.19.68-12.3.62-.22,0-.36-.21-.36-.34-.14-4.79.36-9.58-.29-14.44-.29-2.6-.22-5.2-.29-7.8-.07-2.05.22-4.31-.22-6.37,0-.14-.15-.27-.36-.27-1.31-.07-2.69,0-4.07-.07-.15,0-.36-.14-.36-.34.22-2.94-.22-6.03.07-9.04,0-.13.22-.27.36-.27,1.6.07,3.64.14,4.95-.41.58-.21,1.02,0,1.53,0,1.89-.07,3.86.21,5.75.14,1.97-.14,3.42-.34,5.39.21,1.24.28.29,8.56.22,9.45ZM112.96,72.96c0,.26-.15.08-.41.08-36.55,0-36.55.85-73.1.47-.78,0-.91-.84-.91-1.1l-.23-2.51c25.42.06,25.43-.82,50.85-.46,15.04.83,24.15.34,24.15.6,0,1.46-.36,1.46-.36,2.91Z"/>
  <path d="M48.03,44.44c-.1,0,.05,4.63.2,4.93,1.27.1,3.25-.05,4.07-1.12.81-1.07.46-2.74.46-3.96s.05-2.75-1.27-3.46c-.97-.56-2.39-.61-3.56-.56-.05.36.15,4.17.1,4.17Z"/>
  <path d="M73.77,49.17c.91-.3,1.78-.66,2.24-1.47l.25-.56c.46-.86.66-1.12.61-2.08-.15-.97-.25-1.93-.51-2.9-.51-2.03-3.2-2.08-4.93-1.58-.15,2.9-.41,5.95-.25,8.9,0,.2,2.39-.2,2.59-.3Z"/>
  <path d="M75.06,86.76c-.1-.82-.84-1.44-1.42-1.37-.9.07-.95.96-.95,1.92-.05,2.06-.47,4.18-.42,6.23.05,1.85-.37,3.63.11,5.47h0s0,0,0,0h-.06c.16.62.58,1.1,1.05,1.3.26.07.48.07.69,0,1.42-.48,1.32-3.56,1.21-5-.21-2.81.32-5.89-.21-8.56Z"/>

    <style>
        path { fill: #000; }
        @media (prefers-color-scheme: dark) {
            path { fill: #FFF; }
        }
    </style>
</svg>
